HIERARCHY
ROOT Hips
{
	OFFSET 0.000000 0.000000 0.000000
	CHANNELS 6 Xposition Yposition Zposition Zrotation Yrotation Xrotation 
	JOINT LHipJoint
	{
		OFFSET 0.000000 0.000000 0.000000
		CHANNELS 3 Zrotation Yrotation Xrotation
		JOINT LeftUpLeg
		{
			OFFSET 1.363060 -1.794630 0.839290
			CHANNELS 3 Zrotation Yrotation Xrotation
			JOINT LeftLeg
			{
				OFFSET 2.448110 -6.726130 0.000000
				CHANNELS 3 Zrotation Yrotation Xrotation
				JOINT LeftFoot
				{
					OFFSET 2.562200 -7.039590 0.000000
					CHANNELS 3 Zrotation Yrotation Xrotation
					JOINT LeftToeBase
					{
						OFFSET 0.157640 -0.433110 2.322550
						CHANNELS 3 Zrotation Yrotation Xrotation
						End Site
						{
							OFFSET 0.000000 0.000000 0.000000
						}
					}
				}
			}
		}
	}
	JOINT RHipJoint
	{
		OFFSET 0.000000 0.000000 0.000000
		CHANNELS 3 Zrotation Yrotation Xrotation
		JOINT RightUpLeg
		{
			OFFSET -1.305520 -1.794630 0.839290
			CHANNELS 3 Zrotation Yrotation Xrotation
			JOINT RightLeg
			{
				OFFSET -2.542530 -6.985550 0.000000
				CHANNELS 3 Zrotation Yrotation Xrotation
				JOINT RightFoot
				{
					OFFSET -2.568260 -7.056230 0.000000
					CHANNELS 3 Zrotation Yrotation Xrotation
					JOINT RightToeBase
					{
						OFFSET -0.164730 -0.452590 2.363150
						CHANNELS 3 Zrotation Yrotation Xrotation
						End Site
						{
							OFFSET 0.000000 0.000000 0.000000
						}
					}
				}
			}
		}
	}
	JOINT LowerBack
	{
		OFFSET 0.000000 0.000000 0.000000
		CHANNELS 3 Zrotation Yrotation Xrotation
		JOINT Spine
		{
			OFFSET 0.028270 2.035590 -0.193380
			CHANNELS 3 Zrotation Yrotation Xrotation
			JOINT Spine1
			{
				OFFSET 0.056720 2.048850 -0.042750
				CHANNELS 3 Zrotation Yrotation Xrotation
				JOINT Neck
				{
					OFFSET 0.000000 0.000000 0.000000
					CHANNELS 3 Zrotation Yrotation Xrotation
					JOINT Neck1
					{
						OFFSET -0.054170 1.746240 0.172020
						CHANNELS 3 Zrotation Yrotation Xrotation
						JOINT Head
						{
							OFFSET 0.104070 1.761360 -0.123970
							CHANNELS 3 Zrotation Yrotation Xrotation
							End Site
							{
								OFFSET 0.000000 0.000000 0.000000
							}
						}
					}
				}
				JOINT LeftShoulder
				{
					OFFSET 0.000000 0.000000 0.000000
					CHANNELS 3 Zrotation Yrotation Xrotation
					JOINT LeftArm
					{
						OFFSET 3.362410 1.200890 -0.311210
						CHANNELS 3 Zrotation Yrotation Xrotation
						JOINT LeftForeArm
						{
							OFFSET 4.983000 -0.000000 -0.000000
							CHANNELS 3 Zrotation Yrotation Xrotation
							JOINT LeftHand
							{
								OFFSET 3.483560 -0.000000 -0.000000
								CHANNELS 3 Zrotation Yrotation Xrotation
								JOINT LeftFingerBase
								{
									OFFSET 0.000000 0.000000 0.000000
									CHANNELS 3 Zrotation Yrotation Xrotation
									JOINT LeftHandIndex1
									{
										OFFSET 0.715260 -0.000000 -0.000000
										CHANNELS 3 Zrotation Yrotation Xrotation
										End Site
										{
											OFFSET 0.000000 0.000000 0.000000
										}
									}
								}
								JOINT LThumb
								{
									OFFSET 0.000000 0.000000 0.000000
									CHANNELS 3 Zrotation Yrotation Xrotation
									End Site
									{
										OFFSET 0.000000 0.000000 0.000000
									}
								}
							}
						}
					}
				}
				JOINT RightShoulder
				{
					OFFSET 0.000000 0.000000 0.000000
					CHANNELS 3 Zrotation Yrotation Xrotation
					JOINT RightArm
					{
						OFFSET -3.136600 1.374050 -0.404650
						CHANNELS 3 Zrotation Yrotation Xrotation
						JOINT RightForeArm
						{
							OFFSET -5.241900 -0.000000 -0.000000
							CHANNELS 3 Zrotation Yrotation Xrotation
							JOINT RightHand
							{
								OFFSET -3.444170 -0.000000 -0.000000
								CHANNELS 3 Zrotation Yrotation Xrotation
								JOINT RightFingerBase
								{
									OFFSET 0.000000 0.000000 0.000000
									CHANNELS 3 Zrotation Yrotation Xrotation
									JOINT RightHandIndex1
									{
										OFFSET -0.622530 -0.000000 -0.000000
										CHANNELS 3 Zrotation Yrotation Xrotation
										End Site
										{
											OFFSET 0.000000 0.000000 0.000000
										}
									}
								}
								JOINT RThumb
								{
									OFFSET 0.000000 0.000000 0.000000
									CHANNELS 3 Zrotation Yrotation Xrotation
									End Site
									{
										OFFSET 0.000000 0.000000 0.000000
									}
								}
							}
						}
					}
				}
			}
		}
	}
}
MOTION
Frames: 6
Frame Time: 0.008333
5.229855 16.922516 2.032979 147.511115 -85.821029 -128.084637 -8.976211 0.927087 3.834839 -14.319176 -2.455195 -43.464542 -2.805142 0.302797 23.709122 0.709775 2.720134 -5.007358 0.375301 -0.000000 -42.248100 11.313404 -4.482696 1.051465 -1.591891 -5.481432 -2.393808 0.362549 -1.850446 23.603754 0.046945 11.236747 24.361401 5.877500 0.000000 -89.541900 -5.855167 -0.008210 -5.864907 -2.111150 0.257513 -3.974051 -6.391615 0.208342 0.812920 6.965906 -6.340530 -8.114285 -3.430919 -0.253465 -0.221305 0.000000 0.000000 0.000000 -1.596858 13.965299 3.145399 -54.751523 11.988532 -4.462763 -2.855689 -49.232974 -0.000183 5.839732 1.356326 0.072574 -0.144766 -0.012853 -0.000000 0.000000 0.000000 0.000000 0.000000 0.000000 0.000000 11.439596 0.390695 -0.313383 64.711319 29.785026 31.913823 0.237951 85.995230 0.030122 4.771097 10.641576 0.476253 -0.082071 -0.536525 -0.000000 0.000000 0.000000 0.000000 0.000000 0.000000 0.000000 
5.028823 16.861063 2.032395 143.797264 -85.963271 -124.746165 -8.859477 0.981773 3.698126 -14.627703 -2.639521 -43.585275 -2.606972 0.554238 26.630781 0.783515 3.078451 -5.358308 0.353500 -0.000000 -39.067000 11.583351 -4.505821 0.974867 -2.249762 -6.091508 -2.197833 0.278831 -1.936063 24.993473 -0.002657 12.197203 25.039217 6.525900 -0.000000 -88.844900 -6.214692 -0.090074 -5.675658 -2.193975 0.209144 -3.940694 -6.472468 0.166123 0.772624 7.201505 -6.248208 -8.045210 -3.441863 -0.254688 -0.205237 0.000000 0.000000 0.000000 -1.575828 14.025038 3.173549 -54.431884 11.577993 -4.978384 -2.849834 -49.029042 0.000167 6.649028 1.213451 0.073675 -0.144866 -0.011231 -0.000000 0.000000 0.000000 0.000000 0.000000 0.000000 0.000000 11.628442 0.467136 -0.401060 64.841066 29.861786 31.049027 0.232418 86.248035 0.029834 4.768815 10.732115 0.480636 -0.086154 -0.544726 -0.000000 0.000000 0.000000 0.000000 0.000000 0.000000 0.000000 
4.830795 16.808299 2.031417 140.580717 -86.032203 -121.892482 -8.737369 1.038456 3.571909 -14.929100 -2.817057 -43.491238 -2.428467 0.748161 29.201523 0.888770 3.560093 -5.992385 0.308000 -0.000000 -36.002100 11.845671 -4.500167 0.893868 -2.903570 -6.655900 -2.133813 0.181354 -2.018317 26.529253 -0.074517 13.017689 25.883966 7.157000 0.000000 -87.546500 -6.555797 -0.142757 -5.481363 -2.274249 0.188148 -3.909396 -6.551488 0.151078 0.723577 7.392746 -6.162614 -7.971372 -3.454835 -0.256098 -0.188338 0.000000 0.000000 0.000000 -1.600400 14.071245 3.193935 -54.146013 10.985309 -5.485585 -2.854592 -48.576702 0.000365 7.528282 1.107133 0.075865 -0.144212 -0.009455 -0.000000 0.000000 0.000000 0.000000 0.000000 0.000000 0.000000 11.783338 0.533775 -0.503076 65.064629 29.834153 30.147004 0.237505 86.305119 0.028675 4.621952 10.720619 0.465934 -0.087234 -0.549709 -0.000000 0.000000 0.000000 0.000000 0.000000 0.000000 0.000000 
4.635549 16.765309 2.030603 138.155042 -86.016224 -119.811231 -8.620339 1.095380 3.459104 -15.222313 -2.982717 -43.179351 -2.281640 0.886079 31.351575 1.020796 4.140426 -6.884640 0.230000 -0.000000 -33.350600 12.086823 -4.467161 0.812149 -3.548730 -7.159620 -2.218925 0.073753 -2.097121 28.207579 -0.169472 13.633472 26.876029 7.732600 -0.000001 -85.650300 -6.882792 -0.163432 -5.291907 -2.352036 0.197570 -3.881634 -6.626546 0.165837 0.668972 7.540878 -6.084591 -7.893257 -3.469758 -0.257713 -0.170527 0.000000 0.000000 0.000000 -1.672228 14.107961 3.203865 -53.911408 10.220020 -5.998852 -2.868163 -47.887193 0.000353 8.471134 1.054545 0.080943 -0.142560 -0.007553 -0.000000 0.000000 0.000000 0.000000 0.000000 0.000000 0.000000 11.908223 0.590162 -0.615156 65.364041 29.709799 29.230611 0.251888 86.182520 0.026674 4.336207 10.599190 0.432845 -0.085408 -0.551371 -0.000000 0.000000 0.000000 0.000000 0.000000 0.000000 0.000000 
4.442714 16.732792 2.030793 136.761852 -85.916027 -118.740793 -8.520744 1.147453 3.359355 -15.499151 -3.122828 -42.661659 -2.170920 0.972746 33.055669 1.173985 4.788464 -7.992725 0.111200 0.000000 -31.294300 12.293052 -4.411935 0.734537 -4.169350 -7.586713 -2.460873 -0.038328 -2.173210 30.013620 -0.286803 13.968214 27.975197 8.195200 -0.000001 -83.223201 -7.190827 -0.151637 -5.115732 -2.425492 0.237419 -3.858418 -6.695662 0.210073 0.612156 7.649128 -6.012036 -7.810691 -3.486480 -0.259551 -0.151488 0.000000 0.000000 0.000000 -1.794332 14.138481 3.201225 -53.743366 9.304040 -6.527696 -2.887673 -46.989197 0.000092 9.466008 1.069682 0.091207 -0.139688 -0.005538 -0.000000 0.000000 0.000000 0.000000 0.000000 0.000000 0.000000 12.007850 0.638656 -0.731915 65.712905 29.500876 28.321806 0.273463 85.902028 0.023953 3.933605 10.366805 0.384765 -0.081132 -0.549752 -0.000000 0.000000 0.000000 0.000000 0.000000 0.000000 0.000000 
4.252039 16.710880 2.032778 136.504917 -85.738929 -118.788634 -8.448189 1.189378 3.269612 -15.748914 -3.221214 -41.953474 -2.094875 1.013827 34.316282 1.342275 5.474612 -9.254455 -0.052300 -0.000000 -29.902300 12.455057 -4.340229 0.664479 -4.746856 -7.925330 -2.854943 -0.149349 -2.247927 31.922367 -0.424754 13.944467 29.127193 8.475000 -0.000000 -80.409400 -7.469943 -0.109098 -4.956623 -2.491785 0.305180 -3.839596 -6.756946 0.281082 0.556890 7.723632 -5.942625 -7.723714 -3.504473 -0.261595 -0.130966 0.000000 0.000000 0.000000 -1.966542 14.166663 3.184764 -53.655915 8.265194 -7.075129 -2.909802 -45.921922 -0.000444 10.495457 1.160794 0.109159 -0.135444 -0.003362 -0.000000 0.000000 0.000000 0.000000 0.000000 0.000000 0.000000 12.088076 0.681957 -0.847509 66.079908 29.224625 27.442611 0.299732 85.489064 0.020725 3.449792 10.028826 0.327290 -0.075123 -0.545012 -0.000000 0.000000 0.000000 0.000000 0.000000 0.000000 0.000000 
